<?xml version="1.0" standalone="no"?>
<!DOCTYPE svg PUBLIC "-//W3C//DTD SVG 20010904//EN"
 "http://www.w3.org/TR/2001/REC-SVG-20010904/DTD/svg10.dtd">
<svg version="1.0" xmlns="http://www.w3.org/2000/svg"
 width="968.000000pt" height="1280.000000pt" viewBox="0 0 968.000000 1280.000000"
 preserveAspectRatio="xMidYMid meet">
<g transform="translate(0.000000,1280.000000) scale(0.100000,-0.100000)"
fill="#000000" stroke="none">
<path d="M9484 12777 c-50 -36 -145 -119 -180 -157 -209 -230 -493 -616 -929
-1265 -300 -446 -421 -621 -575 -825 -64 -85 -148 -200 -186 -255 -96 -139
-1955 -2602 -3635 -4815 -1627 -2144 -1909 -2516 -2359 -3115 -555 -740 -1275
-1739 -1414 -1964 -110 -179 -208 -363 -198 -373 15 -15 179 128 291 253 281
313 1076 1301 1667 2074 143 187 562 734 931 1217 369 482 916 1202 1214 1600
299 397 755 1000 1014 1338 259 338 752 989 1096 1445 345 457 830 1098 1080
1427 250 328 544 718 654 868 110 149 237 315 283 368 151 174 344 412 568
702 579 748 828 1117 865 1278 8 37 7 61 -7 118 l-16 71 -53 17 c-65 20 -73
20 -111 -7z m-108 -341 c19 -19 34 -43 34 -53 0 -11 -26 -55 -58 -99 -32 -43
-111 -155 -176 -248 -158 -225 -746 -1008 -754 -1004 -32 15 -82 52 -82 59 0
24 100 182 260 409 37 52 117 168 179 257 61 89 162 226 223 305 195 250 248
320 248 329 0 15 62 79 77 79 8 0 30 -15 49 -34z"/>
</g>
</svg>
