<?xml version="1.0" encoding="UTF-8" standalone="no"?>
<!-- Created with Inkscape (http://www.inkscape.org/) -->

<svg
   xmlns:dc="http://purl.org/dc/elements/1.1/"
   xmlns:cc="http://creativecommons.org/ns#"
   xmlns:rdf="http://www.w3.org/1999/02/22-rdf-syntax-ns#"
   xmlns:svg="http://www.w3.org/2000/svg"
   xmlns="http://www.w3.org/2000/svg"
   xmlns:sodipodi="http://sodipodi.sourceforge.net/DTD/sodipodi-0.dtd"
   xmlns:inkscape="http://www.inkscape.org/namespaces/inkscape"
   width="462.66095"
   height="611.17615"
   id="svg2"
   version="1.1"
   inkscape:version="0.47pre4 r22446"
   sodipodi:docname="needle.svg"
   inkscape:export-filename="/home/ginger/art/dailyillustration/needle.png"
   inkscape:export-xdpi="90"
   inkscape:export-ydpi="90">
  <defs
     id="defs4">
    <inkscape:perspective
       sodipodi:type="inkscape:persp3d"
       inkscape:vp_x="0 : 526.18109 : 1"
       inkscape:vp_y="0 : 1000 : 0"
       inkscape:vp_z="744.09448 : 526.18109 : 1"
       inkscape:persp3d-origin="372.04724 : 350.78739 : 1"
       id="perspective10" />
    <inkscape:perspective
       id="perspective2941"
       inkscape:persp3d-origin="0.5 : 0.33333333 : 1"
       inkscape:vp_z="1 : 0.5 : 1"
       inkscape:vp_y="0 : 1000 : 0"
       inkscape:vp_x="0 : 0.5 : 1"
       sodipodi:type="inkscape:persp3d" />
    <inkscape:perspective
       id="perspective3796"
       inkscape:persp3d-origin="0.5 : 0.33333333 : 1"
       inkscape:vp_z="1 : 0.5 : 1"
       inkscape:vp_y="0 : 1000 : 0"
       inkscape:vp_x="0 : 0.5 : 1"
       sodipodi:type="inkscape:persp3d" />
    <inkscape:perspective
       id="perspective3875"
       inkscape:persp3d-origin="0.5 : 0.33333333 : 1"
       inkscape:vp_z="1 : 0.5 : 1"
       inkscape:vp_y="0 : 1000 : 0"
       inkscape:vp_x="0 : 0.5 : 1"
       sodipodi:type="inkscape:persp3d" />
  </defs>
  <sodipodi:namedview
     id="base"
     pagecolor="#ffffff"
     bordercolor="#666666"
     borderopacity="1.0"
     inkscape:pageopacity="0.0"
     inkscape:pageshadow="2"
     inkscape:zoom="0.49497475"
     inkscape:cx="-2.1820468"
     inkscape:cy="315.04172"
     inkscape:document-units="px"
     inkscape:current-layer="layer1"
     showgrid="false"
     showguides="true"
     inkscape:guide-bbox="true"
     inkscape:window-width="1280"
     inkscape:window-height="746"
     inkscape:window-x="0"
     inkscape:window-y="32"
     inkscape:window-maximized="1" />
  <metadata
     id="metadata7">
    <rdf:RDF>
      <cc:Work
         rdf:about="">
        <dc:format>image/svg+xml</dc:format>
        <dc:type
           rdf:resource="http://purl.org/dc/dcmitype/StillImage" />
        <dc:title></dc:title>
      </cc:Work>
    </rdf:RDF>
  </metadata>
  <g
     inkscape:label="Layer 1"
     inkscape:groupmode="layer"
     id="layer1"
     transform="translate(-143.64116,-71.618898)">
    <path
       style="fill:#666666;stroke:none"
       d="m 143.64116,681.89804 5.67037,-10.40189 6.66261,-10.95148 13.33871,-18.97823 11.43321,-16.00525 14.58843,-20.48823 28.73517,-37.9828 21.60053,-29.05343 48.28335,-63.48856 26.29727,-34.54568 56.3567,-74.23486 78.80136,-104.08028 49.1595,-65.08767 6.77401,-9.88541 10.69553,-14.13048 11.23204,-16.06296 9.08516,-13.57657 14.78895,-21.8822 12.14588,-17.03446 9.67111,-12.77337 9.6189,-11.137351 6.80821,-6.337669 3.25057,-1.970079 3.56377,0.605429 2.42316,0.913137 0.88314,2.739049 0.79331,3.747456 -0.769,4.133711 -2.78581,6.040567 -5.01123,8.105247 -8.91683,12.989843 -11.21185,15.23419 -12.20427,15.78396 -11.83956,15.27173 -10.85983,13.2487 -8.66415,9.95988 -5.0119,6.65362 -15.3388,20.8898 -45.23872,59.39112 -59.54815,78.90706 -42.74299,55.7527 -49.03289,65.34175 -48.42685,63.22982 -45.36525,59.13687 -40.30112,50.84727 -18.31997,21.92123 -7.40954,8.4331 -6.4107,6.46985 -4.32795,3.51156 -0.95472,1.17748 -0.99236,0.54977 -0.97604,-0.8974 z m 398.51769,-528.84985 0.53301,0.98756 1.87001,0.75436 1.63676,1.50389 3.83587,-4.70505 11.52288,-15.56254 14.33511,-18.90998 11.59676,-16.57516 5.13933,-7.034319 1.02785,-2.190656 -1.27204,-2.016101 -2.03904,-1.619366 -1.52542,-0.437766 -2.45865,2.814215 -0.99169,2.001464 -3.70437,4.94237 -6.16787,7.773329 -6.58549,8.46991 -5.94591,8.45391 -6.774,9.88543 -5.59312,7.92011 -6.93758,10.45534 -1.50316,3.08842 z"
       id="path2947" />
    <path
       style="fill:#ececec;stroke:none"
       d="m 603.12923,73.512503 -6.662,8.041024 -1.83756,2.790284 0.8479,0.658048 2.38222,-0.35309 -0.055,0.19153 -6.31057,11.874227 -16.17943,23.141984 -10.00887,13.92318 -14.86174,19.99516 -4.90609,4.81262 -0.57301,-1.61592 -0.57303,-1.61591 -0.90291,-0.46646 -3.75496,3.69149 -8.96599,11.73424 -2.25067,4.9526 1.06783,-0.10836 4.65785,-3.22504 6.05724,-5.93371 4.65956,-4.67601 3.18023,-3.85643 7.10012,-8.12264 6.49872,-8.91735 7.42999,-9.27209 8.03475,-11.37942 7.10256,-9.57309 5.62252,-8.75405 4.44302,-6.811652 5.78566,-7.877887 3.94829,-5.087447 1.78253,-2.598743 -1.08938,-4.874355 -0.10837,-1.067835 -1.56093,0.38145 z"
       id="path2951" />
    <path
       style="fill:#cccccc;stroke:none"
       d="m 602.49952,73.539133 -4.26962,-1.017931 -3.31682,3.609859 -6.38709,7.083186 -10.88513,14.08641 -10.94011,14.277983 -6.60871,9.30042 -8.06308,12.20073 -7.37671,10.53149 -5.62253,8.75403 -2.60719,5.47234 -2.1124,3.74817 -1.72926,3.85814 -3.017,4.73271 -2.38391,1.80408 -2.57886,4.65107 -4.553,7.19481 -9.35081,13.07525 -7.92481,10.99628 -12.58598,17.1233 -6.03227,8.01443 -3.18192,5.3074 -11.05,14.66112 -10.20047,13.86832 -10.28195,13.42994 -18.37187,25.00114 -26.07496,33.78003 -31.53089,40.50846 -20.56405,26.86005 -26.04838,34.40982 -19.4129,25.73891 -26.62304,34.24483 -17.10901,22.04583 -14.45036,19.28395 -14.94326,19.55701 -16.94504,22.92257 -12.88592,16.00053 -7.59485,9.84672 -2.49385,2.18722 9.29584,-12.88353 8.71943,-11.5976 7.3484,-9.71031 8.47252,-11.4613 8.3363,-11.70761 8.77445,-11.78919 8.63613,-10.58482 10.06382,-14.11472 9.8989,-13.5399 10.69364,-14.14145 12.31115,-16.16536 18.81002,-25.08265 12.72259,-16.8768 13.18912,-17.77946 13.73715,-18.24428 25.58189,-33.50686 19.96109,-26.20384 59.69161,-78.66639 17.85034,-23.90657 27.94081,-37.39164 10.5303,-15.01762 9.07764,-13.56835 6.80199,-10.69644 5.48592,-9.00061 7.37671,-10.5315 6.22556,-9.4104 9.21424,-13.3218 9.3775,-12.44554 6.19726,-8.589073 8.55451,-11.022905 4.63292,-5.305715 6.41201,-5.002503 2.38392,-1.804106 0,0 2.792,0.386556 1.01116,1.534282 z"
       id="path2953" />
  </g>
</svg>
